<svg xmlns="http://www.w3.org/2000/svg" xmlns:xlink="http://www.w3.org/1999/xlink" width="302" zoomAndPan="magnify" viewBox="0 0 226.5 226.499992" height="302" preserveAspectRatio="xMidYMid meet" version="1.0"><path fill="#000000" d="M 0.539062 44.488281 L 9.554688 35.003906 C 14.84375 29.71875 23.734375 31.550781 23.734375 31.550781 L 50.132812 35.167969 L 63.503906 22.082031 C 70.542969 15.164062 76.902344 25.746094 74.136719 29.398438 L 67.269531 37.375 L 95.703125 42.640625 L 105.351562 31.390625 C 115.660156 19.0625 123.335938 30.171875 118.679688 36.707031 L 112.449219 44.597656 L 155.160156 50.167969 C 191.882812 14.824219 206.878906 0.164062 216.539062 8.875 C 226.265625 17.640625 209.058594 35.113281 175.605469 69.574219 L 181.679688 113.582031 L 190.628906 106.125 C 195.910156 101.722656 205.289062 108.78125 195.605469 117.964844 L 183.296875 129.574219 L 188.488281 158.378906 L 196.179688 152.464844 C 202.976562 147.054688 211.214844 154.210938 202.035156 164.015625 L 189.820312 176.328125 C 189.316406 176.703125 193.808594 201.59375 193.808594 201.59375 C 196.574219 213.789062 189.691406 218.246094 189.691406 218.246094 L 181.304688 225.5625 L 149.425781 135.515625 C 146.78125 127.597656 140.089844 118.992188 128.902344 120.011719 C 122.996094 120.640625 108.0625 130.722656 106.046875 133.113281 L 71.480469 166.355469 C 70.59375 166.984375 76.796875 209.570312 76.796875 209.570312 C 76.796875 210.824219 65.835938 225.199219 65.835938 225.199219 L 43.929688 186.210938 L 33.113281 191.238281 L 39.4375 181.390625 L 0 159.128906 L 14.789062 148.3125 C 21.828125 149.949219 58.753906 154.097656 59.511719 153.722656 C 59.511719 153.722656 89.582031 123.898438 91.300781 122.097656 C 101.234375 111.660156 104.578125 107.753906 106.082031 102.601562 C 107.59375 97.4375 105.023438 89.875 89.429688 80.304688 C 67.921875 67.097656 0.539062 44.488281 0.539062 44.488281 Z M 0.539062 44.488281 " fill-opacity="1" fill-rule="nonzero"/></svg>