<svg xmlns="http://www.w3.org/2000/svg" xmlns:xlink="http://www.w3.org/1999/xlink" width="302" zoomAndPan="magnify" viewBox="0 0 226.5 226.499992" height="302" preserveAspectRatio="xMidYMid meet" version="1.0"><defs><clipPath id="a7c4c411de"><path d="M 18.878906 2 L 207.390625 2 L 207.390625 226 L 18.878906 226 Z M 18.878906 2 " clip-rule="nonzero"/></clipPath></defs><path fill="#ffffff" d="M 0 0 L 226 0 L 226 226 L 0 226 Z M 0 0 " fill-opacity="1" fill-rule="nonzero"/><path fill="#ffffff" d="M 0 0 L 226 0 L 226 226 L 0 226 Z M 0 0 " fill-opacity="1" fill-rule="nonzero"/><g clip-path="url(#a7c4c411de)"><path fill="#000000" d="M 169.730469 225.800781 L 207.460938 225.800781 C 205.703125 223.957031 203.851562 222.210938 201.910156 220.5625 C 199.964844 218.910156 197.945312 217.367188 195.839844 215.929688 C 193.738281 214.488281 191.566406 213.164062 189.324219 211.953125 C 187.082031 210.742188 184.78125 209.648438 182.425781 208.675781 C 180.070312 207.703125 177.671875 206.859375 175.226562 206.136719 C 172.785156 205.414062 170.308594 204.820312 167.804688 204.359375 C 165.296875 203.894531 162.773438 203.5625 160.234375 203.363281 C 157.695312 203.164062 155.148438 203.09375 152.601562 203.160156 L 150.714844 203.160156 C 157.03125 208.496094 162.515625 214.582031 167.167969 221.421875 Z M 18.808594 225.800781 C 19.777344 224.355469 20.789062 222.941406 21.84375 221.558594 C 22.898438 220.175781 23.996094 218.828125 25.132812 217.511719 C 26.269531 216.195312 27.445312 214.917969 28.660156 213.671875 C 29.878906 212.429688 31.128906 211.226562 32.421875 210.058594 C 33.710938 208.894531 35.035156 207.765625 36.394531 206.683594 C 37.753906 205.597656 39.144531 204.554688 40.566406 203.554688 C 41.988281 202.554688 43.441406 201.597656 44.921875 200.6875 C 46.402344 199.777344 47.910156 198.910156 49.445312 198.09375 C 50.980469 197.273438 52.535156 196.503906 54.117188 195.78125 C 55.699219 195.054688 57.300781 194.382812 58.925781 193.757812 C 60.546875 193.132812 62.1875 192.558594 63.847656 192.035156 C 65.503906 191.507812 67.175781 191.035156 68.863281 190.613281 C 70.550781 190.191406 72.25 189.820312 73.957031 189.503906 C 75.667969 189.1875 77.386719 188.921875 79.113281 188.707031 C 80.835938 188.496094 82.570312 188.335938 84.304688 188.230469 C 86.039062 188.125 87.777344 188.070312 89.515625 188.070312 C 91.253906 188.070312 92.992188 188.125 94.726562 188.230469 C 96.464844 188.335938 98.195312 188.496094 99.921875 188.707031 C 101.648438 188.921875 103.363281 189.1875 105.074219 189.503906 C 106.785156 189.820312 108.480469 190.191406 110.167969 190.613281 C 111.855469 191.035156 113.527344 191.507812 115.1875 192.035156 C 116.84375 192.558594 118.484375 193.132812 120.109375 193.757812 C 121.730469 194.382812 123.332031 195.054688 124.914062 195.78125 C 126.496094 196.503906 128.054688 197.273438 129.589844 198.09375 C 131.121094 198.910156 132.628906 199.777344 134.113281 200.6875 C 135.59375 201.597656 137.042969 202.554688 138.46875 203.554688 C 139.890625 204.554688 141.28125 205.597656 142.640625 206.683594 C 144 207.765625 145.324219 208.894531 146.613281 210.058594 C 147.902344 211.226562 149.15625 212.429688 150.371094 213.671875 C 151.585938 214.917969 152.761719 216.195312 153.902344 217.511719 C 155.039062 218.828125 156.132812 220.175781 157.1875 221.558594 C 158.242188 222.941406 159.253906 224.355469 160.222656 225.800781 Z M 101.816406 92.15625 C 102.269531 92.15625 102.648438 92.15625 103.023438 92.15625 C 99.152344 106.582031 96.316406 121.207031 94.507812 136.035156 C 92.699219 150.859375 91.941406 165.738281 92.234375 180.671875 C 97.3125 180.773438 102.34375 181.328125 107.324219 182.332031 C 106.53125 155.355469 109.375 128.769531 115.851562 102.570312 C 116.722656 103.355469 117.703125 103.964844 118.796875 104.394531 C 119.886719 104.820312 121.019531 105.042969 122.191406 105.0625 C 122.746094 105.058594 123.300781 105.011719 123.847656 104.910156 C 124.394531 104.8125 124.929688 104.667969 125.453125 104.476562 C 125.976562 104.285156 126.476562 104.046875 126.957031 103.769531 C 127.441406 103.488281 127.894531 103.167969 128.316406 102.808594 C 128.742188 102.449219 129.132812 102.054688 129.488281 101.625 C 129.84375 101.199219 130.160156 100.742188 130.433594 100.257812 C 130.710938 99.773438 130.941406 99.269531 131.128906 98.746094 C 131.316406 98.222656 131.457031 97.6875 131.546875 97.136719 L 176.449219 141.960938 C 177.273438 139.695312 177.957031 137.382812 178.503906 135.035156 C 179.046875 132.683594 179.449219 130.308594 179.703125 127.90625 C 179.960938 125.507812 180.070312 123.101562 180.035156 120.691406 C 180 118.277344 179.816406 115.875 179.492188 113.484375 C 179.164062 111.09375 178.691406 108.730469 178.078125 106.398438 C 177.464844 104.0625 176.710938 101.777344 175.816406 99.535156 C 174.925781 97.292969 173.902344 95.113281 172.746094 92.996094 C 171.585938 90.875 170.304688 88.835938 168.902344 86.875 L 204.21875 102.949219 C 204.054688 101.878906 203.863281 100.816406 203.644531 99.757812 C 203.421875 98.699219 203.171875 97.644531 202.894531 96.601562 C 202.617188 95.554688 202.3125 94.519531 201.980469 93.488281 C 201.648438 92.460938 201.285156 91.441406 200.898438 90.433594 C 200.507812 89.425781 200.09375 88.425781 199.648438 87.441406 C 199.207031 86.453125 198.738281 85.480469 198.242188 84.519531 C 197.746094 83.558594 197.226562 82.609375 196.679688 81.679688 C 196.132812 80.746094 195.5625 79.828125 194.964844 78.925781 C 194.367188 78.023438 193.75 77.136719 193.105469 76.269531 C 192.460938 75.402344 191.792969 74.550781 191.101562 73.71875 C 190.410156 72.886719 189.699219 72.074219 188.964844 71.28125 C 188.230469 70.484375 187.476562 69.714844 186.699219 68.960938 C 185.921875 68.207031 185.128906 67.476562 184.3125 66.765625 C 183.496094 66.054688 182.660156 65.371094 181.808594 64.703125 C 180.957031 64.039062 180.085938 63.398438 179.199219 62.78125 C 178.308594 62.164062 177.40625 61.570312 176.484375 61.003906 C 175.566406 60.433594 174.632812 59.890625 173.683594 59.375 C 172.734375 58.855469 171.769531 58.363281 170.796875 57.898438 C 169.820312 57.433594 168.832031 56.992188 167.832031 56.582031 C 166.832031 56.167969 165.824219 55.785156 164.800781 55.425781 C 163.78125 55.066406 162.753906 54.738281 161.714844 54.4375 C 160.675781 54.132812 159.628906 53.859375 158.578125 53.617188 C 157.523438 53.371094 156.464844 53.152344 155.398438 52.964844 C 154.335938 52.777344 153.265625 52.617188 152.191406 52.488281 C 151.117188 52.359375 150.042969 52.257812 148.964844 52.1875 C 147.886719 52.113281 146.804688 52.070312 145.722656 52.058594 C 144.640625 52.042969 143.5625 52.0625 142.480469 52.105469 C 141.402344 52.152344 140.324219 52.226562 139.246094 52.328125 C 138.167969 52.433594 137.097656 52.566406 136.027344 52.726562 C 134.957031 52.886719 133.894531 53.078125 132.835938 53.296875 C 131.777344 53.515625 130.726562 53.765625 129.679688 54.042969 C 128.632812 54.316406 127.597656 54.621094 126.566406 54.953125 C 126.421875 53.871094 126.246094 52.796875 126.042969 51.722656 C 125.839844 50.652344 125.605469 49.585938 125.34375 48.523438 C 125.082031 47.464844 124.792969 46.414062 124.472656 45.371094 C 124.15625 44.324219 123.808594 43.289062 123.433594 42.265625 C 123.058594 41.242188 122.65625 40.226562 122.226562 39.222656 C 121.796875 38.21875 121.339844 37.230469 120.855469 36.25 C 120.371094 35.273438 119.863281 34.308594 119.324219 33.355469 C 118.789062 32.40625 118.226562 31.46875 117.640625 30.550781 C 117.054688 29.628906 116.441406 28.726562 115.808594 27.835938 C 115.171875 26.949219 114.511719 26.082031 113.828125 25.230469 C 113.144531 24.378906 112.441406 23.546875 111.710938 22.734375 C 110.984375 21.917969 110.234375 21.125 109.464844 20.355469 C 108.691406 19.582031 107.902344 18.832031 107.089844 18.101562 C 106.277344 17.371094 105.445312 16.664062 104.59375 15.980469 C 103.746094 15.292969 102.878906 14.632812 101.992188 13.996094 C 101.105469 13.359375 100.203125 12.746094 99.28125 12.15625 C 98.363281 11.570312 97.429688 11.007812 96.480469 10.46875 C 95.527344 9.929688 94.566406 9.417969 93.585938 8.933594 C 92.609375 8.449219 91.621094 7.988281 90.617188 7.558594 C 89.613281 7.125 88.601562 6.722656 87.578125 6.34375 C 86.550781 5.96875 85.519531 5.617188 84.476562 5.296875 C 83.429688 4.976562 82.378906 4.683594 81.320312 4.421875 C 80.261719 4.15625 79.195312 3.921875 78.125 3.71875 C 77.050781 3.511719 75.976562 3.335938 74.894531 3.1875 C 73.8125 3.039062 72.726562 2.921875 71.640625 2.832031 C 70.550781 2.746094 69.460938 2.683594 68.371094 2.65625 C 67.28125 2.625 66.1875 2.625 65.097656 2.65625 C 64.007812 2.6875 62.917969 2.746094 61.828125 2.832031 C 60.742188 2.921875 59.65625 3.039062 58.574219 3.1875 C 57.492188 3.335938 56.417969 3.511719 55.34375 3.71875 C 54.273438 3.925781 53.207031 4.160156 52.148438 4.421875 C 51.089844 4.6875 50.035156 4.980469 48.992188 5.300781 L 79.179688 29.675781 C 76.792969 29.28125 74.390625 29.035156 71.976562 28.9375 C 69.5625 28.835938 67.148438 28.882812 64.738281 29.074219 C 62.332031 29.269531 59.941406 29.605469 57.574219 30.089844 C 55.203125 30.574219 52.875 31.199219 50.582031 31.964844 C 48.289062 32.730469 46.050781 33.632812 43.867188 34.671875 C 41.683594 35.710938 39.570312 36.875 37.53125 38.171875 C 35.488281 39.464844 33.535156 40.878906 31.664062 42.414062 C 29.796875 43.945312 28.023438 45.585938 26.355469 47.332031 L 100.761719 72.988281 C 100.175781 73.042969 99.601562 73.152344 99.039062 73.3125 C 98.472656 73.472656 97.929688 73.683594 97.402344 73.945312 C 96.878906 74.207031 96.378906 74.511719 95.910156 74.867188 C 95.441406 75.21875 95.007812 75.609375 94.613281 76.042969 C 94.214844 76.472656 93.859375 76.9375 93.546875 77.433594 C 93.238281 77.929688 92.972656 78.453125 92.757812 78.996094 C 92.539062 79.542969 92.375 80.101562 92.261719 80.679688 C 92.148438 81.253906 92.089844 81.835938 92.082031 82.421875 C 92.082031 83.0625 92.144531 83.695312 92.269531 84.320312 C 92.394531 84.949219 92.578125 85.558594 92.824219 86.148438 C 93.066406 86.738281 93.367188 87.300781 93.722656 87.832031 C 94.078125 88.363281 94.480469 88.855469 94.933594 89.304688 C 95.386719 89.757812 95.875 90.160156 96.410156 90.515625 C 96.941406 90.871094 97.5 91.171875 98.089844 91.414062 C 98.683594 91.660156 99.289062 91.84375 99.917969 91.96875 C 100.542969 92.09375 101.175781 92.15625 101.816406 92.15625 Z M 120.457031 86.042969 Z M 120.457031 86.042969 " fill-opacity="1" fill-rule="nonzero"/></g></svg>