<svg xmlns="http://www.w3.org/2000/svg" xmlns:xlink="http://www.w3.org/1999/xlink" width="302" zoomAndPan="magnify" viewBox="0 0 226.5 226.499992" height="302" preserveAspectRatio="xMidYMid meet" version="1.0"><path fill="#ffffff" d="M 0 0 L 226 0 L 226 226 L 0 226 Z M 0 0 " fill-opacity="1" fill-rule="nonzero"/><path fill="#ffffff" d="M 0 0 L 226 0 L 226 226 L 0 226 Z M 0 0 " fill-opacity="1" fill-rule="nonzero"/><path fill="#141414" d="M 208.15625 138.359375 C 207.929688 135.9375 207.476562 133.554688 206.800781 131.21875 C 206.769531 131.089844 206.746094 131 206.746094 131 L 206.746094 131.007812 C 206.734375 130.964844 206.726562 130.921875 206.714844 130.878906 C 199.140625 156.214844 165.839844 175.882812 124.390625 178.925781 L 124.390625 83.246094 L 159.542969 80.8125 C 161.003906 82.789062 163.347656 84.078125 166 84.078125 C 170.429688 84.078125 174.023438 80.496094 174.023438 76.074219 C 174.023438 71.652344 170.429688 68.070312 166 68.070312 C 163.1875 68.070312 160.714844 69.515625 159.285156 71.703125 L 124.390625 68.898438 L 124.390625 55.226562 C 134.703125 50.902344 141.949219 40.722656 141.949219 28.859375 C 141.949219 13.066406 129.121094 0.265625 113.296875 0.265625 C 97.472656 0.265625 84.648438 13.066406 84.648438 28.859375 C 84.648438 40.722656 91.890625 50.898438 102.207031 55.226562 L 102.207031 68.898438 L 67.296875 71.703125 C 65.863281 69.515625 63.394531 68.070312 60.578125 68.070312 C 56.148438 68.070312 52.558594 71.652344 52.558594 76.074219 C 52.558594 80.496094 56.148438 84.078125 60.578125 84.078125 C 63.230469 84.078125 65.578125 82.789062 67.035156 80.8125 L 102.207031 83.246094 L 102.207031 178.941406 C 60.644531 175.957031 27.230469 156.261719 19.644531 130.875 C 18.878906 133.441406 18.382812 136.0625 18.160156 138.730469 C 16.644531 149.1875 15.578125 168.089844 24.394531 181.652344 C 23.816406 176.808594 24.125 170.636719 27.414062 167.621094 C 34.753906 177.132812 46.015625 185.242188 59.90625 191.113281 C 60.136719 191.214844 60.378906 191.304688 60.609375 191.402344 L 60.609375 191.449219 C 60.914062 191.554688 61.203125 191.660156 61.503906 191.765625 C 63.925781 192.742188 66.414062 193.664062 68.984375 194.503906 C 105.042969 208.644531 113.175781 225.8125 113.175781 225.8125 L 113.179688 225.402344 L 113.179688 225.8125 C 113.179688 225.8125 121.335938 208.585938 157.558594 194.429688 C 159.988281 193.628906 162.351562 192.761719 164.652344 191.832031 C 165.023438 191.707031 165.371094 191.578125 165.746094 191.449219 L 165.746094 191.394531 C 179.957031 185.5 191.492188 177.289062 198.953125 167.621094 C 202.246094 170.632812 202.554688 176.804688 201.976562 181.652344 C 210.902344 167.925781 209.703125 148.730469 208.152344 138.359375 Z M 113.300781 14.570312 C 121.210938 14.570312 127.621094 20.96875 127.621094 28.859375 C 127.621094 36.75 121.210938 43.148438 113.300781 43.148438 C 105.394531 43.148438 98.984375 36.75 98.984375 28.859375 C 98.984375 20.96875 105.394531 14.570312 113.300781 14.570312 Z M 113.300781 14.570312 " fill-opacity="1" fill-rule="nonzero"/></svg>