<svg xmlns="http://www.w3.org/2000/svg" xmlns:xlink="http://www.w3.org/1999/xlink" width="302" zoomAndPan="magnify" viewBox="0 0 226.5 226.499992" height="302" preserveAspectRatio="xMidYMid meet" version="1.0"><defs><clipPath id="d1fcd2afdf"><path d="M 0.0195312 52.042969 L 226 52.042969 L 226 174.023438 L 0.0195312 174.023438 Z M 0.0195312 52.042969 " clip-rule="nonzero"/></clipPath></defs><path fill="#ffffff" d="M 0 0 L 226 0 L 226 226 L 0 226 Z M 0 0 " fill-opacity="1" fill-rule="nonzero"/><path fill="#ffffff" d="M 0 0 L 226 0 L 226 226 L 0 226 Z M 0 0 " fill-opacity="1" fill-rule="nonzero"/><g clip-path="url(#d1fcd2afdf)"><path fill="#141515" d="M 50.773438 99.652344 C 52.75 99.652344 54.355469 98.050781 54.355469 96.074219 C 54.355469 94.128906 52.75 92.523438 50.773438 92.523438 C 48.796875 92.523438 47.191406 94.128906 47.191406 96.074219 C 47.191406 98.050781 48.796875 99.652344 50.773438 99.652344 Z M 124.898438 174.035156 C 82.882812 169.367188 42.410156 164.527344 0.0195312 165.84375 C 17.75 150.097656 102.445312 165.84375 124.898438 174.035156 Z M 171.816406 107.296875 L 179.347656 110.675781 L 179.605469 113.136719 L 171.816406 110.046875 Z M 159.46875 101.800781 L 165.65625 104.550781 L 165.65625 107.613281 L 159.46875 105.152344 Z M 146.121094 95.816406 L 153.253906 99.023438 L 153.253906 102.6875 L 146.121094 99.851562 Z M 131.257812 89.203125 L 138.90625 92.609375 L 138.90625 97.019531 L 131.257812 93.984375 Z M 111.925781 86.3125 L 112.441406 80.785156 L 122.949219 85.480469 L 122.949219 90.691406 Z M 160.15625 85.480469 C 160.789062 85.082031 161.332031 84.824219 161.703125 84.824219 C 163.394531 84.824219 168.492188 86.285156 169.839844 89.460938 C 170.210938 90.292969 170.183594 91.324219 169.925781 92.410156 C 176.683594 97.277344 182.382812 101.570312 186.078125 104.550781 C 189.628906 107.410156 190.117188 123.699219 190.117188 123.699219 L 105.222656 93.210938 L 107.371094 72.082031 L 177.542969 105.894531 L 108.546875 62.863281 L 63.949219 67.359375 L 58.59375 81.300781 C 58.59375 81.300781 60.625 63.609375 62.574219 63.035156 C 64.523438 62.464844 109.289062 53.1875 109.289062 53.1875 C 110.433594 53.703125 111.753906 54.363281 113.15625 55.136719 C 114.902344 53.617188 116.996094 52.042969 117.96875 52.042969 C 119.828125 52.042969 125.503906 53.703125 126.988281 57.195312 C 127.621094 58.710938 127.105469 60.890625 126.304688 62.863281 C 130.511719 65.5 135.097656 68.449219 139.765625 71.539062 C 140.851562 70.710938 141.886719 70.078125 142.484375 70.078125 C 144.175781 70.078125 149.273438 71.539062 150.621094 74.714844 C 151.105469 75.804688 150.90625 77.265625 150.421875 78.726562 C 153.742188 80.988281 157.007812 83.246094 160.15625 85.480469 Z M 103.273438 72.199219 C 103.273438 72.199219 102.757812 77.925781 102.101562 77.925781 C 101.414062 77.925781 63.492188 79.070312 63.492188 79.070312 L 64.78125 74.832031 Z M 38.34375 137.53125 C 38.945312 133.035156 38.316406 127.023438 33.5625 121.039062 C 23.964844 108.988281 11.191406 85.3125 12.824219 78.152344 C 15.804688 65.125 67.441406 85.996094 78.957031 89.203125 L 204.4375 133.40625 C 204.4375 133.40625 208.9375 133.980469 209.222656 136.5 C 209.421875 138.332031 203.089844 148.695312 199.453125 154.449219 C 211.511719 152.304688 218.703125 150.382812 222.367188 149.238281 C 228.328125 147.378906 225.71875 150.644531 223.285156 151.84375 C 214.777344 156.140625 206.128906 160.320312 197.390625 162.550781 C 165.457031 170.738281 132.089844 165.84375 98.980469 159.917969 C 66.242188 154.046875 39.347656 151.816406 4.863281 153.363281 C 4.863281 153.363281 37.800781 139.648438 89.039062 145.316406 C 107.570312 147.378906 124.070312 149.640625 138.5625 151.558594 C 130.886719 148.179688 118.195312 143.800781 98.664062 140.105469 C 74.117188 135.5 51.433594 136.328125 38.34375 137.53125 " fill-opacity="1" fill-rule="evenodd"/></g></svg>