<svg xmlns="http://www.w3.org/2000/svg" xmlns:xlink="http://www.w3.org/1999/xlink" width="302" zoomAndPan="magnify" viewBox="0 0 226.5 226.499992" height="302" preserveAspectRatio="xMidYMid meet" version="1.0"><defs><clipPath id="78ab70539d"><path d="M 0.183594 29.273438 L 225.820312 29.273438 L 225.820312 196.890625 L 0.183594 196.890625 Z M 0.183594 29.273438 " clip-rule="nonzero"/></clipPath></defs><path fill="#ffffff" d="M 0 0 L 226 0 L 226 226 L 0 226 Z M 0 0 " fill-opacity="1" fill-rule="nonzero"/><path fill="#ffffff" d="M 0 0 L 226 0 L 226 226 L 0 226 Z M 0 0 " fill-opacity="1" fill-rule="nonzero"/><g clip-path="url(#78ab70539d)"><path fill="#000000" d="M 14.414062 96.546875 C 10.546875 109.9375 7.21875 115.433594 7.15625 131.902344 C 7.121094 146.289062 7.1875 160.683594 7.164062 175.089844 C 7.136719 194.339844 8.503906 196.828125 28.199219 196.890625 C 48.589844 196.960938 46.128906 189.328125 46.195312 171.324219 L 179.613281 171.203125 C 179.761719 188.550781 177.390625 196.960938 196.761719 196.890625 C 224.429688 196.828125 218.636719 191.722656 218.664062 132.878906 C 218.671875 117.003906 215.820312 109.632812 211.347656 96.539062 C 224.433594 96.089844 240.25 65.9375 200.777344 72.101562 C 198.6875 65.589844 195.847656 59.449219 193.113281 53.050781 C 189.683594 44.964844 189.433594 42.285156 183.894531 36.65625 C 179.199219 31.871094 172.5 29.878906 164.957031 29.46875 L 161.546875 29.269531 L 59.882812 29.59375 C 41.046875 29.757812 37.078125 42.785156 32.167969 54.34375 C 30.242188 58.835938 26.917969 68.867188 24.214844 71.910156 C -13.777344 66.183594 1.535156 96.054688 14.414062 96.546875 Z M 59.699219 145.074219 L 59.699219 125.15625 L 166.3125 125.15625 L 166.3125 145.074219 Z M 45.066406 138.289062 C 45.066406 144.855469 39.683594 150.191406 33.027344 150.199219 C 26.382812 150.199219 20.996094 144.859375 20.996094 138.289062 C 20.996094 131.71875 26.382812 126.34375 33.027344 126.34375 C 39.6875 126.34375 45.066406 131.71875 45.066406 138.289062 Z M 205.019531 138.289062 C 205.019531 144.855469 199.613281 150.191406 192.984375 150.199219 C 186.308594 150.199219 180.929688 144.859375 180.929688 138.289062 C 180.929688 131.71875 186.308594 126.34375 192.984375 126.34375 C 199.613281 126.34375 205.019531 131.71875 205.019531 138.289062 Z M 61.183594 39.410156 C 68.5625 37.515625 104.855469 38.78125 115.472656 38.777344 C 169.4375 38.777344 169.035156 33.277344 179.257812 57.953125 C 181.925781 64.4375 184.742188 71.0625 187.34375 77.445312 C 189.472656 82.75 196.351562 93.78125 190.992188 97.730469 C 187.011719 100.652344 65.339844 99.066406 53.976562 99.066406 C 27.980469 99.066406 29.042969 100.132812 39.953125 73.796875 C 46.25 58.527344 49.976562 42.296875 61.183594 39.410156 " fill-opacity="1" fill-rule="evenodd"/></g></svg>