<svg xmlns="http://www.w3.org/2000/svg" xmlns:xlink="http://www.w3.org/1999/xlink" width="302" zoomAndPan="magnify" viewBox="0 0 226.5 226.499992" height="302" preserveAspectRatio="xMidYMid meet" version="1.0"><defs><clipPath id="68af232ca5"><path d="M 11.171875 216 L 215.472656 216 L 215.472656 226 L 11.171875 226 Z M 11.171875 216 " clip-rule="nonzero"/></clipPath></defs><path fill="#ffffff" d="M 0 0 L 226 0 L 226 226 L 0 226 Z M 0 0 " fill-opacity="1" fill-rule="nonzero"/><path fill="#ffffff" d="M 0 0 L 226 0 L 226 226 L 0 226 Z M 0 0 " fill-opacity="1" fill-rule="nonzero"/><path fill="#000000" d="M 148.78125 171.769531 C 147.605469 156.683594 132.132812 144.707031 113.277344 144.707031 C 94.425781 144.707031 78.949219 156.683594 77.773438 171.769531 Z M 148.78125 171.769531 " fill-opacity="1" fill-rule="nonzero"/><path fill="#000000" d="M 187.769531 0 L 38.785156 0 L 38.785156 33.492188 L 187.769531 33.492188 Z M 74.835938 28.730469 L 64.898438 23.40625 L 54.945312 28.730469 L 58.882812 18.296875 L 53.375 12.265625 L 61.558594 12.265625 L 64.898438 4.761719 L 68.234375 12.265625 L 76.4375 12.265625 L 70.914062 18.296875 Z M 123.238281 28.730469 L 113.285156 23.40625 L 103.34375 28.730469 L 107.269531 18.296875 L 101.746094 12.265625 L 109.949219 12.265625 L 113.285156 4.761719 L 116.625 12.265625 L 124.804688 12.265625 L 119.300781 18.296875 Z M 171.628906 28.730469 L 161.675781 23.40625 L 151.738281 28.730469 L 155.660156 18.296875 L 150.136719 12.265625 L 158.339844 12.265625 L 161.675781 4.761719 L 165.015625 12.265625 L 173.199219 12.265625 L 167.691406 18.296875 Z M 171.628906 28.730469 " fill-opacity="1" fill-rule="nonzero"/><path fill="#000000" d="M 76.863281 175.476562 L 75.839844 175.476562 C 74.8125 175.476562 73.984375 174.648438 73.984375 173.621094 C 73.984375 155.636719 91.609375 141.003906 113.277344 141.003906 C 134.945312 141.003906 152.570312 155.636719 152.570312 173.621094 C 152.570312 174.648438 151.738281 175.476562 150.710938 175.476562 L 149.707031 175.476562 L 149.707031 212.824219 L 203.914062 212.824219 L 203.914062 37.195312 L 22.636719 37.195312 L 22.636719 212.824219 L 76.867188 212.824219 L 76.867188 175.476562 Z M 169.902344 54.296875 L 190.464844 54.296875 L 190.464844 74.796875 L 169.902344 74.796875 Z M 169.902344 83.347656 L 190.464844 83.347656 L 190.464844 103.84375 L 169.902344 103.84375 Z M 169.902344 112.394531 L 190.464844 112.394531 L 190.464844 132.890625 L 169.902344 132.890625 Z M 159.511719 149.824219 L 190.464844 149.824219 L 190.464844 197.414062 L 159.511719 197.414062 Z M 136.449219 54.296875 L 157.011719 54.296875 L 157.011719 74.796875 L 136.449219 74.796875 Z M 136.449219 83.347656 L 157.011719 83.347656 L 157.011719 103.84375 L 136.449219 103.84375 Z M 136.449219 112.394531 L 157.011719 112.394531 L 157.011719 132.890625 L 136.449219 132.890625 Z M 103 54.296875 L 123.558594 54.296875 L 123.558594 74.796875 L 103 74.796875 Z M 103 83.347656 L 123.558594 83.347656 L 123.558594 103.84375 L 103 103.84375 Z M 103 112.394531 L 123.558594 112.394531 L 123.558594 132.890625 L 103 132.890625 Z M 69.546875 54.296875 L 90.105469 54.296875 L 90.105469 74.796875 L 69.546875 74.796875 Z M 69.546875 83.347656 L 90.105469 83.347656 L 90.105469 103.84375 L 69.546875 103.84375 Z M 36.09375 54.296875 L 56.652344 54.296875 L 56.652344 74.796875 L 36.09375 74.796875 Z M 36.09375 83.347656 L 56.652344 83.347656 L 56.652344 103.84375 L 36.09375 103.84375 Z M 36.09375 112.394531 L 56.652344 112.394531 L 56.652344 132.890625 L 36.09375 132.890625 Z M 67.042969 197.417969 L 36.09375 197.417969 L 36.09375 149.828125 L 67.042969 149.828125 Z M 69.546875 112.394531 L 90.105469 112.394531 L 90.105469 132.890625 L 69.546875 132.890625 Z M 69.546875 112.394531 " fill-opacity="1" fill-rule="nonzero"/><path fill="#000000" d="M 140.335938 175.476562 L 145.992188 175.476562 L 145.992188 212.824219 L 140.335938 212.824219 Z M 140.335938 175.476562 " fill-opacity="1" fill-rule="nonzero"/><g clip-path="url(#68af232ca5)"><path fill="#000000" d="M 205.777344 216.527344 L 11.3125 216.527344 L 11.3125 226 L 215.261719 226 L 215.261719 216.527344 Z M 205.777344 216.527344 " fill-opacity="1" fill-rule="nonzero"/></g><path fill="#000000" d="M 80.582031 175.476562 L 86.242188 175.476562 L 86.242188 212.824219 L 80.582031 212.824219 Z M 80.582031 175.476562 " fill-opacity="1" fill-rule="nonzero"/><path fill="#000000" d="M 100.484375 185.507812 L 126.070312 185.507812 L 126.070312 212.824219 L 100.484375 212.824219 Z M 100.484375 185.507812 " fill-opacity="1" fill-rule="nonzero"/><path fill="#000000" d="M 136.617188 212.824219 L 136.617188 175.476562 L 89.957031 175.476562 L 89.957031 212.824219 L 96.769531 212.824219 L 96.769531 183.65625 C 96.769531 182.632812 97.601562 181.804688 98.628906 181.804688 L 127.929688 181.804688 C 128.957031 181.804688 129.785156 182.632812 129.785156 183.65625 L 129.785156 212.824219 Z M 136.617188 212.824219 " fill-opacity="1" fill-rule="nonzero"/></svg>